<svg xmlns="http://www.w3.org/2000/svg" xmlns:oryx="http://oryx-editor.org" id="_318CF375-D58E-4F79-89FC-D745CC3602B1" width="610" height="210" xmlns:xlink="http://www.w3.org/1999/xlink" xmlns:svg="http://www.w3.org/2000/svg"><defs><marker id="_8C5C6955-1616-4B01-907F-7F67CDB7D436start" refX="1" refY="5" markerUnits="userSpaceOnUse" markerWidth="17" markerHeight="11" orient="auto" fill="#000000" stroke="#000000"> 	  		<path id="_8C5C6955-1616-4B01-907F-7F67CDB7D436conditional" d="M 0 5 L 8 0 L 16 5 L 8 10 L 0 5" fill="white" stroke="#000000" stroke-width="1" display="none"/> 			<path id="_8C5C6955-1616-4B01-907F-7F67CDB7D436default" d="M 5 0 L 11 10" fill="white" stroke="#000000" stroke-width="1" display="none"/> 	  	</marker><marker id="_8C5C6955-1616-4B01-907F-7F67CDB7D436end" refX="15" refY="6" markerUnits="userSpaceOnUse" markerWidth="15" markerHeight="12" orient="auto" fill="#000000" stroke="#000000"> 	  		<path id="_8C5C6955-1616-4B01-907F-7F67CDB7D436frame2" d="M 0 1 L 15 6 L 0 11z" fill="#000000" stroke="#000000" stroke-linejoin="round" stroke-width="2"/> 	  	</marker><marker id="_FD096418-3CB9-4ADE-922C-16503E50D31Dstart" refX="1" refY="5" markerUnits="userSpaceOnUse" markerWidth="17" markerHeight="11" orient="auto" fill="#000000" stroke="#000000"> 	  		<path id="_FD096418-3CB9-4ADE-922C-16503E50D31Dconditional" d="M 0 5 L 8 0 L 16 5 L 8 10 L 0 5" fill="white" stroke="#000000" stroke-width="1" display="none"/> 			<path id="_FD096418-3CB9-4ADE-922C-16503E50D31Ddefault" d="M 5 0 L 11 10" fill="white" stroke="#000000" stroke-width="1" display="none"/> 	  	</marker><marker id="_FD096418-3CB9-4ADE-922C-16503E50D31Dend" refX="15" refY="6" markerUnits="userSpaceOnUse" markerWidth="15" markerHeight="12" orient="auto" fill="#000000" stroke="#000000"> 	  		<path id="_FD096418-3CB9-4ADE-922C-16503E50D31Dframe2" d="M 0 1 L 15 6 L 0 11z" fill="#000000" stroke="#000000" stroke-linejoin="round" stroke-width="2"/> 	  	</marker></defs><g stroke="none" font-family="Verdana, sans-serif" font-size-adjust="none" font-style="normal" font-variant="normal" font-weight="normal" line-heigth="normal" font-size="12"><g class="stencils" transform="translate(15, 16)"><g class="me"/><g class="children"><g id="_009CD313-1247-4842-8D1D-C6455AC86699" bpmn2nodeid="_EFCC181A-268A-446B-BA7D-C3A4483F16B7"><g class="stencils" transform="translate(542, 100)"><g class="me"><g pointer-events="fill" id="_009CD313-1247-4842-8D1D-C6455AC86699">      <defs id="_009CD313-1247-4842-8D1D-C6455AC86699__009CD313-1247-4842-8D1D-C6455AC86699_5"> 		<radialGradient id="_009CD313-1247-4842-8D1D-C6455AC86699background" cx="10%" cy="10%" r="100%" fx="10%" fy="10%"> 			<stop offset="0%" stop-color="#ffffff" stop-opacity="1" id="_009CD313-1247-4842-8D1D-C6455AC86699__009CD313-1247-4842-8D1D-C6455AC86699_6"/> 			<stop id="_009CD313-1247-4842-8D1D-C6455AC86699fill_el" offset="100%" stop-color="#ff6347" stop-opacity="1"/> 		</radialGradient> 	</defs> 	     <circle id="_009CD313-1247-4842-8D1D-C6455AC86699bg_frame" cx="14" cy="14" r="14" stroke="#000000" fill="url(#_009CD313-1247-4842-8D1D-C6455AC86699background) white" stroke-width="3"/> 	<text font-size="11" id="_009CD313-1247-4842-8D1D-C6455AC86699text_name" x="14" y="30" oryx:align="top center" stroke="black" stroke-width="0pt" letter-spacing="-0.01px" fill="#000000" text-anchor="middle" transform="rotate(0 14 30)" visibility="inherit" oryx:fontSize="11"/>   </g></g><g class="children" style="overflow:hidden"/><g class="edge"/></g><g class="controls"><g class="dockers"/><g class="magnets" transform="translate(542, 100)"><g pointer-events="all" display="none" transform="translate(6, 6)"><circle cx="8" cy="8" r="4" stroke="none" fill="red" fill-opacity="0.3"/></g></g></g></g><g id="_90668070-5F39-407B-91A6-EF9ECEC832A5" bpmn2nodeid="_AE8E0E34-D371-4233-AD20-BB5C7102A2F5"><g class="stencils" transform="translate(100, 100)"><g class="me"><g pointer-events="fill" id="_90668070-5F39-407B-91A6-EF9ECEC832A5">        <defs id="_90668070-5F39-407B-91A6-EF9ECEC832A5__90668070-5F39-407B-91A6-EF9ECEC832A5_5"> 		<radialGradient id="_90668070-5F39-407B-91A6-EF9ECEC832A5background" cx="10%" cy="10%" r="100%" fx="10%" fy="10%"> 			<stop offset="0%" stop-color="#ffffff" stop-opacity="1" id="_90668070-5F39-407B-91A6-EF9ECEC832A5__90668070-5F39-407B-91A6-EF9ECEC832A5_6"/> 			<stop id="_90668070-5F39-407B-91A6-EF9ECEC832A5fill_el" offset="100%" stop-color="#9acd32" stop-opacity="1"/> 		</radialGradient> 	</defs> 	     <circle id="_90668070-5F39-407B-91A6-EF9ECEC832A5bg_frame" cx="15" cy="15" r="15" stroke="#000000" fill="url(#_90668070-5F39-407B-91A6-EF9ECEC832A5background) white" stroke-width="1" style="stroke-dasharray: 5.5, 3"/>      <circle id="_90668070-5F39-407B-91A6-EF9ECEC832A5frame" cx="15" cy="15" r="15" stroke="#000000" fill="none" stroke-width="1" display="inherit"/>  	<text font-size="11" id="_90668070-5F39-407B-91A6-EF9ECEC832A5text_name" x="15" y="32" oryx:align="top center" stroke="black" stroke-width="0pt" letter-spacing="-0.01px" fill="#000000" text-anchor="middle" transform="rotate(0 15 32)" visibility="inherit" oryx:fontSize="11"/>   </g></g><g class="children" style="overflow:hidden"/><g class="edge"/></g><g class="controls"><g class="dockers"/><g class="magnets" transform="translate(100, 100)"><g pointer-events="all" display="none" transform="translate(7, 7)"><circle cx="8" cy="8" r="4" stroke="none" fill="red" fill-opacity="0.3"/></g></g></g></g><g id="_6872072F-180B-4BB4-A00D-0CF08145FFD2" bpmn2nodeid="_5BD35492-ED00-42AD-B1AD-AA521B9225F4"><g class="stencils" transform="translate(272, 63)"><g class="me"><g pointer-events="fill" oryx:minimumSize="50 40" id="_6872072F-180B-4BB4-A00D-0CF08145FFD2">   	<defs id="_6872072F-180B-4BB4-A00D-0CF08145FFD2__6872072F-180B-4BB4-A00D-0CF08145FFD2_17"> 		<radialGradient id="_6872072F-180B-4BB4-A00D-0CF08145FFD2background" cx="10%" cy="10%" r="100%" fx="10%" fy="10%"> 			<stop offset="0%" stop-color="#ffffff" stop-opacity="1" id="_6872072F-180B-4BB4-A00D-0CF08145FFD2__6872072F-180B-4BB4-A00D-0CF08145FFD2_18"/> 			<stop id="_6872072F-180B-4BB4-A00D-0CF08145FFD2fill_el" offset="100%" stop-color="#fafad2" stop-opacity="1"/> 		</radialGradient> 		<radialGradient id="_6872072F-180B-4BB4-A00D-0CF08145FFD2borderbackground" cx="10%" cy="10%" r="100%" fx="10%" fy="10%"> 			<stop offset="0%" stop-color="#ffffff" stop-opacity="1" id="_6872072F-180B-4BB4-A00D-0CF08145FFD2__6872072F-180B-4BB4-A00D-0CF08145FFD2_19"/> 			<stop id="_6872072F-180B-4BB4-A00D-0CF08145FFD2fill_border" offset="100%" stop-color="#000000" stop-opacity="1" stroke="#000000"/> 		</radialGradient> 	</defs> 	 	<rect id="_6872072F-180B-4BB4-A00D-0CF08145FFD2text_frame" oryx:anchors="bottom top right left" x="1" y="1" width="148" height="101" rx="10" ry="10" stroke="none" stroke-width="0" fill="none"/> 	<rect id="_6872072F-180B-4BB4-A00D-0CF08145FFD2bg_frame" oryx:resize="vertical horizontal" x="0" y="0" width="154" height="102" rx="10" ry="10" stroke="#000000" stroke-width="1" fill="url(#_6872072F-180B-4BB4-A00D-0CF08145FFD2background) #ffffcc"/> 		<text font-size="12" id="_6872072F-180B-4BB4-A00D-0CF08145FFD2text_name" x="77" y="51" oryx:align="middle center" oryx:fittoelem="text_frame" stroke="black" text-anchor="middle" stroke-width="0pt" letter-spacing="-0.01px" fill="#000000" transform="rotate(0 77 51)" visibility="inherit" oryx:fontSize="12"><tspan x="77" y="51" dy="5" id="ext-gen608">Prepare Data</tspan></text>     <g id="_6872072F-180B-4BB4-A00D-0CF08145FFD2manualTask" transform="scale(0.7,0.7) translate(8,8)" display="none">     	<path oryx:anchors="top left" id="_6872072F-180B-4BB4-A00D-0CF08145FFD2frame" style="opacity:1;fill:none;fill-opacity:1;stroke-width:1" d="M0.5,3.751l4.083-3.25c0,0,11.166,0.083,12.083,0.083s-2.417,2.917-1.5,2.917     s11.667,0,12.584,0c1.166,1.708-0.168,3.167-0.834,3.667s0.875,1.917-1,4.417c-0.75,0.25,0.75,1.875-1.333,3.333     c-1.167,0.583,0.583,1.542-1.25,2.833c-1.167,0-20.833,0.083-20.833,0.083l-2-1.333V3.751z" stroke="#000000"/> 		<path id="_6872072F-180B-4BB4-A00D-0CF08145FFD2frame2" oryx:anchors="top left" style="opacity:1;fill:none;stroke-width:2" d="M 13.5 7 L 27 7" stroke="#000000"/> 		<path id="_6872072F-180B-4BB4-A00D-0CF08145FFD2frame3" oryx:anchors="top left" style="opacity:1;fill:none;stroke-width:2" d="M 13.5 11 L 26 11" stroke="#000000"/> 		<path id="_6872072F-180B-4BB4-A00D-0CF08145FFD2frame4" oryx:anchors="top left" style="opacity:1;fill:none;stroke-width:1.5" d="M 14 14.5 L 25 14.5" stroke="#000000"/> 		<path id="_6872072F-180B-4BB4-A00D-0CF08145FFD2frame5" oryx:anchors="top left" style="opacity:1;fill:none;stroke-width:1.5" d="M 8.2 3.1 L 15 3.1" stroke="#000000"/> 	</g> 	 	<g id="_6872072F-180B-4BB4-A00D-0CF08145FFD2businessRuleTask" transform="scale(0.7,0.7) translate(8,8)" display="none"> 		<rect id="_6872072F-180B-4BB4-A00D-0CF08145FFD2frame6" oryx:anchors="top left" x="0" y="0" width="22" height="4" style="opacity:1;fill:#B3B1B3;fill-opacity:1;" stroke="#000000"/> 		<rect id="_6872072F-180B-4BB4-A00D-0CF08145FFD2frame7" oryx:anchors="top left" x="0" y="4" style="opacity:1;fill:none;" width="22" height="12" stroke="#000000"/> 		<path id="_6872072F-180B-4BB4-A00D-0CF08145FFD2frame8" oryx:anchors="top left" style="opacity:1;fill:none;" d="M 0 10 L 22 10" stroke="#000000"/> 		<path id="_6872072F-180B-4BB4-A00D-0CF08145FFD2frame9" oryx:anchors="top left" style="opacity:1; fill:none;" d="M 7 4 L 7 16" stroke="#000000"/> 	</g> 	 	<g id="_6872072F-180B-4BB4-A00D-0CF08145FFD2scriptTask" transform="scale(0.7,0.7) translate(8,8)" display="inherit"> 		<path oryx:anchors="top left" id="_6872072F-180B-4BB4-A00D-0CF08145FFD2frame10" style="opacity:1;fill:none;" stroke="#000000" d="M6.402,0.5h14.5c0,0-5.833,2.833-5.833,5.583s4.417,6,4.417,9.167    s-4.167,5.083-4.167,5.083H0.235c0,0,5-2.667,5-5s-4.583-6.75-4.583-9.25S6.402,0.5,6.402,0.5z"/> 		<path oryx:anchors="top left" id="_6872072F-180B-4BB4-A00D-0CF08145FFD2frame11" style="opacity:1;fill:none;stroke-width:1.5" d="M 3.5 4.5 L 13.5 4.5" stroke="#000000"/> 		<path oryx:anchors="top left" id="_6872072F-180B-4BB4-A00D-0CF08145FFD2frame12" style="opacity:1;fill:none;stroke-width:1.5" d="M 3.8 8.5 L 13.8 8.5" stroke="#000000"/> 		<path oryx:anchors="top left" id="_6872072F-180B-4BB4-A00D-0CF08145FFD2frame13" style="opacity:1;fill:none;stroke-width:1.5" d="M 6.3 12.5 L 16.3 12.5" stroke="#000000"/> 		<path oryx:anchors="top left" id="_6872072F-180B-4BB4-A00D-0CF08145FFD2frame14" style="opacity:1;fill:none;stroke-width:1.5" d="M 6.5 16.5 L 16.5 16.5" stroke="#000000"/> 	</g> 	 	<g id="_6872072F-180B-4BB4-A00D-0CF08145FFD2userTask" transform="scale(0.7,0.7) translate(8,8)" display="none"> 		<path id="_6872072F-180B-4BB4-A00D-0CF08145FFD2frame15" oryx:anchors="top left" style="opacity:1;fill:#F4F6F7" stroke="#000000" d="M0.585,24.167h24.083v-7.833c0,0-2.333-3.917-7.083-5.167h-9.25    c-4.417,1.333-7.833,5.75-7.833,5.75L0.585,24.167z"/> 		<path id="_6872072F-180B-4BB4-A00D-0CF08145FFD2frame16" oryx:anchors="top left" style="opacity:1;fill:none" d="M 6 20 L 6 24" stroke="#000000"/> 		<path id="_6872072F-180B-4BB4-A00D-0CF08145FFD2frame17" oryx:anchors="top left" style="opacity:1;fill:none" d="M 20 20 L 20 24" stroke="#000000"/> 		<circle id="_6872072F-180B-4BB4-A00D-0CF08145FFD2frame18" oryx:anchors="top left" fill="black" cx="13.002" cy="5.916" r="5.417" stroke="#000000"/> 		<path id="_6872072F-180B-4BB4-A00D-0CF08145FFD2frame19" oryx:anchors="top left" style="opacity:1;fill:#F0EFF0;" stroke="#000000" d="M8.043,7.083c0,0,2.814-2.426,5.376-1.807s4.624-0.693,4.624-0.693    c0.25,1.688,0.042,3.75-1.458,5.584c0,0,1.083,0.75,1.083,1.5s0.125,1.875-1,3s-5.5,1.25-6.75,0S8.668,12.834,8.668,12    s0.583-1.25,1.25-1.917C8.835,9.5,7.419,7.708,8.043,7.083z"/> 	</g> 	 	<g id="_6872072F-180B-4BB4-A00D-0CF08145FFD2serviceTask" transform="scale(0.7,0.7) translate(8,8)" display="none"> 		<polygon oryx:anchors="top left" id="_6872072F-180B-4BB4-A00D-0CF08145FFD2frame20" style="opacity:1;fill:#ffffff" stroke="#000000" points="15.392,5.064 17.954,2.502 20.347,4.895 17.786,7.455     18.729,9.732 22.353,9.732 22.353,13.115 18.731,13.115 17.788,15.392 20.351,17.955 17.958,20.347 15.397,17.786 13.12,18.729     13.12,22.353 9.737,22.353 9.737,18.731 7.46,17.788 4.897,20.35 2.506,17.958 5.066,15.397 4.124,13.12 0.5,13.12 0.5,9.737     4.121,9.737 5.065,7.461 2.503,4.898 4.895,2.506 7.455,5.066 9.732,4.125 9.732,0.5 13.116,0.5 13.116,4.121 "/> 		<circle oryx:anchors="top left" id="_6872072F-180B-4BB4-A00D-0CF08145FFD2frame21" style="opacity:1;fill:none" stroke="#000000" cx="11.427" cy="11.426" r="3.714"/> 		<polygon oryx:anchors="top left" id="_6872072F-180B-4BB4-A00D-0CF08145FFD2frame22" style="opacity:1;fill:#ffffff" stroke="#000000" points="21.392,11.064 23.954,8.502 26.347,10.895 23.786,13.455     24.729,15.732 28.353,15.732 28.353,19.115 24.731,19.115 23.788,21.392 26.351,23.955 23.958,26.347 21.397,23.786 19.12,24.729     19.12,28.353 15.737,28.353 15.737,24.731 13.46,23.788 10.897,26.35 8.506,23.958 11.066,21.397 10.124,19.12 6.5,19.12     6.5,15.737 10.121,15.737 11.065,13.461 8.503,10.898 10.895,8.506 13.455,11.066 15.732,10.125 15.732,6.5 19.116,6.5     19.116,10.121 "/> 		<circle oryx:anchors="top left" id="_6872072F-180B-4BB4-A00D-0CF08145FFD2frame23" style="opacity:1;fill:none;" stroke="#000000" cx="17.427" cy="17.426" r="3.714"/> 	</g> 	 	<g id="_6872072F-180B-4BB4-A00D-0CF08145FFD2sendTask" display="none"> 		<path id="_6872072F-180B-4BB4-A00D-0CF08145FFD2stframe24" oryx:anchors="left top" stroke="#FFFFFF" fill="black" stroke-width="1" d="M8,11 L8,21 L24,21 L24,11 L16,17z"/> 		<path id="_6872072F-180B-4BB4-A00D-0CF08145FFD2stframe25" oryx:anchors="left top" stroke="#FFFFFF" fill="black" stroke-width="1" d="M7,10 L16,17 L25 10z"/> 	</g> 	 	<g id="_6872072F-180B-4BB4-A00D-0CF08145FFD2receiveTask" display="none"> 		<path id="_6872072F-180B-4BB4-A00D-0CF08145FFD2frame26" oryx:anchors="left top" stroke="#000000" fill="none" stroke-width="1" d="M8,11 L8,21 L24,21 L24,11z M8,11 L16,17 L24,11"/> 	</g> 	 	<g id="_6872072F-180B-4BB4-A00D-0CF08145FFD2none" display="inherit"/>  	<g id="_6872072F-180B-4BB4-A00D-0CF08145FFD2sequential" display="none">         <path oryx:anchors="bottom" fill="none" stroke="#000000" stroke-width="2" d=" M73.54 98  h10  M73.54 94  h10  M73.54 90  h10 " id="_6872072F-180B-4BB4-A00D-0CF08145FFD2__6872072F-180B-4BB4-A00D-0CF08145FFD2_20"/>     </g>   </g></g><g class="children" style="overflow:hidden"/><g class="edge"/></g><g class="controls"><g class="dockers"/><g class="magnets" transform="translate(272, 63)"><g pointer-events="all" display="none" transform="translate(-7, 17.5)"><circle cx="8" cy="8" r="4" stroke="none" fill="red" fill-opacity="0.3"/></g><g pointer-events="all" display="none" transform="translate(-7, 43)"><circle cx="8" cy="8" r="4" stroke="none" fill="red" fill-opacity="0.3"/></g><g pointer-events="all" display="none" transform="translate(-7, 68.5)"><circle cx="8" cy="8" r="4" stroke="none" fill="red" fill-opacity="0.3"/></g><g pointer-events="all" display="none" transform="translate(30.5, 93)"><circle cx="8" cy="8" r="4" stroke="none" fill="red" fill-opacity="0.3"/></g><g pointer-events="all" display="none" transform="translate(69, 93)"><circle cx="8" cy="8" r="4" stroke="none" fill="red" fill-opacity="0.3"/></g><g pointer-events="all" display="none" transform="translate(107.5, 93)"><circle cx="8" cy="8" r="4" stroke="none" fill="red" fill-opacity="0.3"/></g><g pointer-events="all" display="none" transform="translate(145, 17.5)"><circle cx="8" cy="8" r="4" stroke="none" fill="red" fill-opacity="0.3"/></g><g pointer-events="all" display="none" transform="translate(145, 43)"><circle cx="8" cy="8" r="4" stroke="none" fill="red" fill-opacity="0.3"/></g><g pointer-events="all" display="none" transform="translate(145, 68.5)"><circle cx="8" cy="8" r="4" stroke="none" fill="red" fill-opacity="0.3"/></g><g pointer-events="all" display="none" transform="translate(30.5, -7)"><circle cx="8" cy="8" r="4" stroke="none" fill="red" fill-opacity="0.3"/></g><g pointer-events="all" display="none" transform="translate(69, -7)"><circle cx="8" cy="8" r="4" stroke="none" fill="red" fill-opacity="0.3"/></g><g pointer-events="all" display="none" transform="translate(107.5, -7)"><circle cx="8" cy="8" r="4" stroke="none" fill="red" fill-opacity="0.3"/></g><g pointer-events="all" display="none" transform="translate(69, 43)"><circle cx="8" cy="8" r="4" stroke="none" fill="red" fill-opacity="0.3"/></g></g></g></g></g><g class="edge"><g id="_8C5C6955-1616-4B01-907F-7F67CDB7D436" bpmn2nodeid="_D1B2BBB1-427D-4CBF-97F1-DC62DD15CE31"><g class="stencils"><g class="me"><g pointer-events="painted" bpmn2nodeid="_19EF28D7-4595-46B9-BB77-35EAC4503981"><path id="_8C5C6955-1616-4B01-907F-7F67CDB7D436_1" d="M426.0078125 114L541.25390625 114 " stroke="#000000" fill="none" stroke-width="2" stroke-linecap="round" stroke-linejoin="round" marker-start="url(#_8C5C6955-1616-4B01-907F-7F67CDB7D436start)" marker-end="url(#_8C5C6955-1616-4B01-907F-7F67CDB7D436end)"/></g><text id="_8C5C6955-1616-4B01-907F-7F67CDB7D436text_name" font-size="12" x="440.0078125" y="100" oryx:edgePosition="startTop" stroke-width="0pt" letter-spacing="-0.01px" fill="#000000" text-anchor="start" transform="rotate(360 426.0078125 114)" visibility="inherit" oryx:fontSize="12"/></g><g class="children" style="overflow:hidden"/><g class="edge"/></g><g class="controls"><g class="dockers"/><g class="magnets"/></g></g><g id="_FD096418-3CB9-4ADE-922C-16503E50D31D" bpmn2nodeid="_D3249BB5-971D-41DA-8957-741A7AB60F65"><g class="stencils"><g class="me"><g pointer-events="painted" bpmn2nodeid="_79A672D0-6E19-4ABE-B3DC-7D67B5E85202"><path id="_FD096418-3CB9-4ADE-922C-16503E50D31D_1" d="M130.62499086870568 114.93322653474912L271.2187591312943 114.33239846525088 " stroke="#000000" fill="none" stroke-width="2" stroke-linecap="round" stroke-linejoin="round" marker-start="url(#_FD096418-3CB9-4ADE-922C-16503E50D31Dstart)" marker-end="url(#_FD096418-3CB9-4ADE-922C-16503E50D31Dend)"/></g><text id="_FD096418-3CB9-4ADE-922C-16503E50D31Dtext_name" font-size="12" x="144.62499086870568" y="100.93322653474912" oryx:edgePosition="startTop" stroke-width="0pt" letter-spacing="-0.01px" fill="#000000" text-anchor="start" transform="rotate(359.7551477319557 130.62499086870568 114.93322653474912)" visibility="inherit" oryx:fontSize="12"/></g><g class="children" style="overflow:hidden"/><g class="edge"/></g><g class="controls"><g class="dockers"/><g class="magnets"/></g></g></g><text id="_35CE2103-D520-4214-AACA-4583C4DE4E4E" style="stroke-width:1;fill:rgb(177,194,214);font-family:arial;font-weight:bold" font-size="12" onclick="ORYX.Plugins.CanvasTitle.openTextualAnalysis()" onmouseover="ORYX.Plugins.CanvasTitle.addToolTip('_35CE2103-D520-4214-AACA-4583C4DE4E4E')" transform="translate(10, 20)">new-order-permitting v.1.0 (Solar_Project.new-order-permitting)</text></g></g></svg>